<svg xmlns="http://www.w3.org/2000/svg" viewBox="0 0 44 48" fill="none">
  <path
    d="M22 2.5 39.5 11.2v14.8c0 10.6-7.8 18.2-17.5 21.5C12.3 44.2 4.5 36.6 4.5 26V11.2L22 2.5Z"
    fill="#16A34A"
  />
  <path
    d="M22 8.5c-5.8 0-10.5 8.2-10.5 14.2 0 4.5 4.5 8.8 10.5 12.2 6-3.4 10.5-7.7 10.5-12.2 0-6-4.7-14.2-10.5-14.2Z"
    fill="#FFFFFF"
  />
  <path
    d="M10.5 28.5c3.5 2.2 7.8 3.2 11.5 3.2s8-1 11.5-3.2"
    fill="#16A34A"
  />
  <path d="M22 14 27.5 26h-11L22 14Z" fill="#16A34A" />
  <path d="M22 11.5 25.8 21.5h-7.6L22 11.5Z" fill="#15803D" />
</svg>
